# xmcd
# 
# Track frame offsets:
#     150
#     19578
#     34363
#     48363
#     63865
#     83666
#     100825
#     116770
#     133232
#     148123
# 
# Disc length: 2206
# 
# Revision: 2
# Processed by: cddbd v1.5.2PL0 Copyright (c) Steve Scherf et al.
# Submitted via: fre:ac v1.0.31
# 
DISCID=87089c0a
DTITLE=Texas To The Bone - Texas To The Bone Volume II
DYEAR=0
DGENRE=Country
TTITLE0=If These Walls Could Talk
TTITLE1=Wild Horses
TTITLE2=More of Your Love
TTITLE3=It Feels Like You're Still Here
TTITLE4=Texas Angel
TTITLE5=Jumped Head First
TTITLE6=Somebody Else
TTITLE7=The Real Thing
TTITLE8=She's Still in Dallas
TTITLE9=King of a One Horse Town
EXTD=
EXTT0=
EXTT1=
EXTT2=
EXTT3=
EXTT4=
EXTT5=
EXTT6=
EXTT7=
EXTT8=
EXTT9=
PLAYORDER=
